PathFileType	4	(X/Y/Z)	Walk1_0-155.trc
DataRate	CameraRate	NumFrames	NumMarkers	Units	OrigDataRate	OrigDataStartFrame	OrigNumFrames
30	30	6	22	m	30	116	155
Frame#	Time	Hip			RHip			RKnee			RAnkle			RBigToe			RSmallToe			RHeel			LHip			LKnee			LAnkle			LBigToe			LSmallToe			LHeel			Neck			Head			Nose			RShoulder			RElbow			RWrist			LShoulder			LElbow			LWrist		
		X1	Y1	Z1	X2	Y2	Z2	X3	Y3	Z3	X4	Y4	Z4	X5	Y5	Z5	X6	Y6	Z6	X7	Y7	Z7	X8	Y8	Z8	X9	Y9	Z9	X10	Y10	Z10	X11	Y11	Z11	X12	Y12	Z12	X13	Y13	Z13	X14	Y14	Z14	X15	Y15	Z15	X16	Y16	Z16	X17	Y17	Z17	X18	Y18	Z18	X19	Y19	Z19	X20	Y20	Z20	X21	Y21	Z21	X22	Y22	Z22
117	3.9	0.9855757870363778	0.9083210569363918	0.3975203631856382	0.9723311357249946	0.8954542635133939	0.5153624028171491	0.9211285955225036	0.518939132573084	0.4803586851650559	0.8566603922344841	0.10254347113104811	0.4455653309602716	1.0418420368473893	0.03198432843785258	0.4502793189003391	0.9938306939510777	0.02363766126791067	0.5058342261835747	0.8023297685163715	0.03363432754232305	0.4322287407580548	0.9920246048532075	0.8941024260921155	0.28595204074379443	1.174091729959237	0.5555441743914679	0.30565229523073434	1.0156277501211466	0.2104649935670303	0.32518576466959126	1.186460293852527	0.0818690970229502	0.32413240199468724	1.1529748755481486	0.08802852205430015	0.2683137051925869	0.9539579767741578	0.1527852722688216	0.32940173234857656	0.9168836289243999	1.5795674412803795	0.4224934564934977	0.9758206734907534	1.8474391932140997	0.4478927021230674	1.0819208014565636	1.6778779491416767	0.4041269044078466	0.895113018206731	1.4610912688956665	0.5841310940272666	1.01087153420133	1.1773706550081204	0.6614876927553301	1.193187280906988	0.9657224798101699	0.6727705038392809	0.8924933352217417	1.4674483255991075	0.22516738731882247	0.8623852261748021	1.161992771368619	0.16558734173362402	0.9181668360772846	0.9067622214724718	0.10809370647550709
118	3.933333333333333	1.0185745473203962	0.9064372344680743	0.40041541855729024	1.001860681123027	0.8945027300297056	0.5172069330492362	0.9363570040355319	0.5200683016041417	0.48151857973908396	0.8587196617575542	0.10365884639322274	0.44588299520119307	1.0414954536994976	0.03218990047621525	0.45491487887867293	0.9930592358326611	0.024117111710641057	0.508379035055136	0.8029923610679351	0.03509965376584333	0.4293339434916121	1.0280360529335504	0.8918515216318996	0.2886511320152714	1.2229388220528088	0.5538984972556807	0.3151591705951617	1.1245705862345934	0.1821771533257907	0.32811543488686085	1.324874279783419	0.08510448080339668	0.3285725231256329	1.2918848909584486	0.08280586102203265	0.275093279612221	1.0737980138333143	0.11689099178917649	0.3313789237691723	0.9530518295713063	1.5787291316294456	0.4230196088382398	1.013498491668189	1.8448409843937401	0.44766442678770546	1.1235425436779374	1.6723296459262833	0.4065911524000946	0.9337055897126364	1.4614938567776568	0.5859457755404378	1.0664682886650434	1.1825238116345236	0.6685154244613376	1.2665856451738406	0.984243884155224	0.6713578329331688	0.933993054787908	1.4647069011622724	0.23375693103946987	0.895620292446973	1.1596865322925005	0.16983520315390366	0.9430989642068022	0.9022082503704495	0.10070042592572553
119	3.966666666666667	1.0547282034418473	0.9018434699153062	0.40494966750164246	1.03463486230228	0.8894596844493743	0.5191758836106369	0.9523954878997708	0.5193953944237464	0.48257587775818667	0.8602104442406748	0.10520432374676722	0.44605606998694813	1.041650923488453	0.03040862796105999	0.45915573094887807	0.9926145719057631	0.0232290329364854	0.5098744308875983	0.8038517767981848	0.037278513460276205	0.4263928928686814	1.066795682959657	0.886289002876736	0.29373798261642453	1.2651296347992005	0.5468588208857809	0.3216481113587331	1.2285497265084362	0.1594880913034077	0.32716465434544645	1.4473111594802759	0.08996916784499084	0.3276444595740321	1.4153758406928594	0.08024596005864355	0.278428987350868	1.1896487706325414	0.08886281052850993	0.3308422819524349	0.9895667530868298	1.5766233117090425	0.41987551118588495	1.0534248071785597	1.8401556407016024	0.443378372787045	1.1687852162132915	1.6658503465780659	0.40695593536440067	0.9700562006165228	1.460009089541315	0.584658961089773	1.1156864193647373	1.1841250594826174	0.6728195155649835	1.3360515059207998	0.9998418866081918	0.6672142407371742	0.9805853687412143	1.4607603741287793	0.24294588467116046	0.9336580175813214	1.1549839097642847	0.1730868869819001	0.9724896953676043	0.8944357602137484	0.09406121726483455
120	4.0	1.0956110120275457	0.8948966141882124	0.40887031348176356	1.0724764008941237	0.8811416405302508	0.519683331041062	0.9715873739707551	0.5169390496242902	0.4831263318782	0.8615352376655497	0.10809709906531742	0.4464309835072564	1.041326757374853	0.026834505759720066	0.4616366118758976	0.9910827579878623	0.02107336491483484	0.5094023972837837	0.8050730694326815	0.04161398894549761	0.42340286242069114	1.1094765920201053	0.8778923205156183	0.29872679881582226	1.3046045390742964	0.536308889268484	0.32424707981229545	1.32643740162611	0.14248430467126139	0.32324412328305147	1.5546949510770673	0.09485190957938373	0.3227995690680781	1.525382019016398	0.07839538075302924	0.27823287637723243	1.299291920335552	0.06790290944845079	0.32800547084836273	1.0271977953909988	1.5729962875090309	0.41228194686428277	1.0957982763640972	1.8343255797775213	0.43500278808928056	1.216413815766489	1.6594732322318149	0.4048777134157061	1.0078309419170983	1.4564558234372538	0.5803574472558178	1.1588940029327837	1.182509491362453	0.6727145703968817	1.4014862354151956	1.011555742725371	0.6608843178445082	1.0306382219628825	1.4557884520341937	0.24910847172037795	0.9744295532777052	1.148350383452075	0.1742266983023432	1.0064480638268343	0.8844277231794444	0.08823670771640806
121	4.033333333333333	1.1411634772785866	0.8863175593183974	0.4109528314114283	1.115584062666567	0.8710385744258238	0.518391928222501	0.9971387980976356	0.5128422362409967	0.48297106142347723	0.8635141780799246	0.11365542846071185	0.4469663545269244	1.0404829407361071	0.02215358809923807	0.46195519403849017	0.9880222852831027	0.018471473210092473	0.5069641176208456	0.8066936447508891	0.049580290180734746	0.42067051354736906	1.1558462056904102	0.8679143421311608	0.30205659793184214	1.34553313168375	0.5251258585372721	0.3246107689308313	1.4138341107459338	0.12983856824885726	0.3184448894821746	1.645444602583337	0.09669738928265019	0.31705412139371064	1.6210169647284367	0.07399241115600595	0.27650217691807333	1.396892264166279	0.052121266173565065	0.32457129766969345	1.0666171403998965	1.5677022795180295	0.4018111236261004	1.1397398069831188	1.827815532470943	0.42460868199830865	1.264685742913313	1.6542486604565494	0.400015143102909	1.048562511700711	1.4509802886719028	0.5738449772594335	1.1975411046043831	1.1781212497776372	0.6675396648623699	1.4611902268459789	1.0183825298580795	0.6532178899145381	1.0816691138316747	1.450046029699855	0.2507677542132046	1.01539655375696	1.1404988206507782	0.17175391335820972	1.0452484838548672	0.8734764886093956	0.08336581960331747
122	4.066666666666666	1.1904230145167265	0.8771802065712511	0.41108800278812974	1.1631601683013835	0.861054073995077	0.5159926567060533	1.031822760002673	0.5075731871711961	0.4824103102573404	0.8676752955730286	0.12341974670980388	0.44739288791694354	1.0398222032347844	0.017065813716488118	0.46102330089407034	0.984277607130657	0.016660373807134424	0.5036042747808381	0.8088726626695996	0.06272185028931214	0.4188180367548409	1.205103565263249	0.8582235928456294	0.30333357355922547	1.3910016649501116	0.5161486232807816	0.32543419227354137	1.4858923255780183	0.11985846994475245	0.3147644308658945	1.7174538504170818	0.09268399974359706	0.313193935961826	1.6996516474856378	0.06456019536931402	0.27592046741593024	1.4763617138503922	0.03990636724344328	0.3225460464429062	1.1081563682891922	1.5610914499791617	0.39091479628016557	1.1849256694005967	1.8209395940695072	0.41508369739681594	1.312516252429174	1.6507806877044366	0.39250001925542266	1.0918549419276162	1.4442172451881428	0.566185987744025	1.2342696961413946	1.1713742587373597	0.6587232508173887	1.5137566363526784	1.0196618753996425	0.6450417158494481	1.1318339780508258	1.4439639254006487	0.2488701844951131	1.0552674942241056	1.1322578624857056	0.16496631103630655	1.08954018849578	0.8628922281708857	0.08007062761349425
